<!DOCTYPE svg PUBLIC "-//W3C//DTD SVG 1.1//EN" "http://www.w3.org/Graphics/SVG/1.1/DTD/svg11.dtd">
<!-- Uploaded to: SVG Repo, www.svgrepo.com, Transformed by: SVG Repo Mixer Tools -->
<svg fill="#e8e8e8" height="800px" width="800px" version="1.1" id="Layer_1" xmlns="http://www.w3.org/2000/svg" xmlns:xlink="http://www.w3.org/1999/xlink" viewBox="0 0 447 447" xml:space="preserve" stroke="#e8e8e8" stroke-width="0.00447">
<g id="SVGRepo_bgCarrier" stroke-width="0"/>
<g id="SVGRepo_tracerCarrier" stroke-linecap="round" stroke-linejoin="round"/>
<g id="SVGRepo_iconCarrier"> <g> <g> <g> <path d="M290.832,22.796C273.668,8.096,250.067,0,224.375,0h-1.75c-25.692,0-49.294,8.096-66.457,22.796 C138.003,38.353,128,60.666,128,85.625V119c0,4.418,3.581,8,8,8h45.117c0.007,0,0.014,0,0.02,0c4.418,0,8-3.582,8-8 c0-0.372-0.025-0.737-0.074-1.096C189.02,117.188,189,116.573,189,116c0-19.023,15.477-34.5,34.5-34.5S258,96.977,258,116 c0,0.712,0,18.083,0,18.083C258,151.682,243.682,166,226.083,166H136c-4.419,0-8,3.582-8,8v233.934 C128,429.475,145.525,447,167.066,447h112.868C301.475,447,319,429.475,319,407.934V85.625 C319,60.666,308.997,38.353,290.832,22.796z M303,407.934C303,420.652,292.653,431,279.934,431H167.066 C154.348,431,144,420.652,144,407.934V182h82.083C252.505,182,274,160.505,274,134.083c0,0,0-17.412,0-18.083 c0-27.846-22.654-50.5-50.5-50.5c-26.158,0-47.735,19.993-50.254,45.5H144V85.625C144,44.631,176.331,16,222.625,16h1.75 C270.668,16,303,44.631,303,85.625V407.934z"/> <path d="M267,233h-87c-4.419,0-8,3.582-8,8c0,4.418,3.581,8,8,8h87c4.418,0,8-3.582,8-8C275,236.582,271.418,233,267,233z"/> <path d="M267,274h-87c-4.419,0-8,3.582-8,8c0,4.418,3.581,8,8,8h87c4.418,0,8-3.582,8-8C275,277.582,271.418,274,267,274z"/> <path d="M267,315h-87c-4.419,0-8,3.582-8,8c0,4.418,3.581,8,8,8h87c4.418,0,8-3.582,8-8C275,318.582,271.418,315,267,315z"/> <path d="M267,356h-87c-4.419,0-8,3.582-8,8c0,4.418,3.581,8,8,8h87c4.418,0,8-3.582,8-8C275,359.582,271.418,356,267,356z"/> </g> </g> </g> </g>
</svg>